<?xml version="1.0" encoding="UTF-8"?>
<svg version="1.1" xmlns="http://www.w3.org/2000/svg" width="617" height="691">
<path d="M0 0 C203.61 0 407.22 0 617 0 C617 228.03 617 456.06 617 691 C413.39 691 209.78 691 0 691 C0 462.97 0 234.94 0 0 Z " fill="#FEFEFC" transform="translate(0,0)"/>
<path d="M0 0 C71.61 0 143.22 0 217 0 C217 107.91 217 215.82 217 327 C181.36 327 145.72 327 109 327 C109 255.06 109 183.12 109 109 C73.03 109 37.06 109 0 109 C0 73.03 0 37.06 0 0 Z " fill="#510BFD" transform="translate(272,244)"/>
<path d="M0 0 C35.64 0 71.28 0 108 0 C108 72.27 108 144.54 108 219 C143.97 219 179.94 219 217 219 C217 254.64 217 290.28 217 327 C145.39 327 73.78 327 0 327 C0 219.09 0 111.18 0 0 Z " fill="#510BFD" transform="translate(136,158)"/>
<path d="M0 0 C72.6 0 145.2 0 220 0 C221.02166059 3.06498176 220.98449914 4.25693214 220.57001591 7.36255455 C219.86330688 13.64931513 219.86440805 19.87841604 219.87974548 26.1991272 C219.87889106 27.49807399 219.87803663 28.79702079 219.87715632 30.1353296 C219.8749341 33.71564476 219.8789013 37.29592966 219.88393438 40.87624097 C219.88827153 44.74658531 219.88679014 48.61692808 219.8860321 52.48727417 C219.88550893 59.18459092 219.8886341 65.8818979 219.89426994 72.57921219 C219.902413 82.26228516 219.90500304 91.94535343 219.90625793 101.62842946 C219.90844405 117.34034237 219.91509218 133.05225007 219.92456055 148.76416016 C219.93374606 164.02262343 219.94082132 179.2810853 219.94506836 194.53955078 C219.94533108 195.48081415 219.94559381 196.42207752 219.94586449 197.39186402 C219.94716957 202.11412418 219.94843327 206.83638435 219.94967639 211.55864453 C219.96003529 250.70576667 219.97764161 289.85288299 220 329 C217.10461862 329.76250331 214.58373375 330.12710424 211.584198 330.13371277 C210.70651764 330.13797775 209.82883728 330.14224274 208.92456055 330.14663696 C207.96960693 330.14618378 207.01465332 330.14573059 206.03076172 330.14526367 C205.01901886 330.14862228 204.007276 330.1519809 202.96487427 330.15544128 C199.61979954 330.16494272 196.27477488 330.1668937 192.9296875 330.16796875 C190.60848978 330.17118083 188.28729226 330.17454487 185.96609497 330.17805481 C181.10222911 330.1840433 176.23838101 330.18589489 171.37451172 330.18530273 C165.1285487 330.18520089 158.88269878 330.19887777 152.63676262 330.21607494 C147.84481274 330.22716541 143.05289051 330.22922289 138.26092911 330.22869301 C135.95714044 330.22987664 133.65335113 330.23431973 131.34957504 330.24202538 C128.13645106 330.2517699 124.92357681 330.24896971 121.71044922 330.24291992 C120.75144714 330.24853943 119.79244507 330.25415894 118.80438232 330.25994873 C117.49632126 330.253657 117.49632126 330.253657 116.16183472 330.24723816 C115.40194181 330.24778293 114.64204891 330.24832769 113.85912895 330.24888897 C112 330 112 330 110 328 C145.64 328 181.28 328 218 328 C218 220.09 218 112.18 218 1 C146.39 1 74.78 1 1 1 C1 36.97 1 72.94 1 110 C0.67 110 0.34 110 0 110 C0 73.7 0 37.4 0 0 Z " fill="#F8E5FD" transform="translate(271,243)"/>
<path d="M0 0 C0.33 0 0.66 0 1 0 C1 107.91 1 215.82 1 327 C72.61 327 144.22 327 218 327 C218 291.36 218 255.72 218 219 C182.03 219 146.06 219 109 219 C109 218.67 109 218.34 109 218 C145.63 218 182.26 218 220 218 C220.33 254.3 220.66 290.6 221 328 C216.71110086 329.07222478 212.79477536 329.13891367 208.41490173 329.12698364 C207.53972053 329.12854363 206.66453932 329.13010362 205.76283747 329.13171089 C202.82486615 329.1357054 199.88694633 329.13253722 196.94897461 329.12939453 C194.84490427 329.13074925 192.74083417 329.13252958 190.63676453 329.13470459 C184.91796818 329.13927026 179.19918984 329.13749298 173.48039317 329.1343255 C167.50268044 329.13179778 161.52496926 329.13414056 155.54725647 329.13571167 C145.50895917 329.13753201 135.47066923 329.13513044 125.43237305 329.13037109 C113.81598189 329.12492725 102.19960829 329.12669256 90.58321756 329.1321975 C80.61968903 329.1367307 70.65616578 329.1373782 60.69263655 329.13475883 C54.73737364 329.13319739 48.78211899 329.1329987 42.82685661 329.13629532 C37.2299155 329.13917707 31.63299708 329.1371927 26.03605843 329.13140106 C23.97807986 329.13007517 21.9200994 329.1304647 19.86212158 329.13266373 C17.06075985 329.13538184 14.25947163 329.13198591 11.45811462 329.12698364 C10.63691869 329.12921436 9.81572276 329.13144509 8.9696421 329.13374341 C5.7179173 329.12242136 3.10738047 329.03579349 0 328 C0 219.76 0 111.52 0 0 Z " fill="#DFBAFE" transform="translate(135,158)"/>
<path d="M0 0 C0.99 0 1.98 0 3 0 C3 71.94 3 143.88 3 218 C2.34 218 1.68 218 1 218 C-0.00044201 213.01919533 -0.13848446 208.2832514 -0.12025452 203.23013306 C-0.12110894 202.35929341 -0.12196337 201.48845376 -0.12284368 200.59122503 C-0.1244877 197.68009899 -0.11899477 194.76903087 -0.11352539 191.85791016 C-0.11324326 189.76838177 -0.11340176 187.67885328 -0.1139679 185.58932495 C-0.11425486 179.92043087 -0.10837436 174.25155794 -0.10139394 168.58266878 C-0.09514367 162.65695077 -0.09455527 156.73123227 -0.09336853 150.80551147 C-0.09026016 139.58592817 -0.08205341 128.36635461 -0.07201904 117.1467756 C-0.06084259 104.3729993 -0.05534359 91.59922253 -0.05032361 78.82544255 C-0.0398704 52.55028963 -0.02228049 26.27514536 0 0 Z " fill="#E7C7FE" transform="translate(378,353)"/>
<path d="M0 0 C0.99 0.33 1.98 0.66 3 1 C3 1.66 3 2.32 3 3 C3.99 3.33 4.98 3.66 6 4 C6 5.32 6 6.64 6 8 C4.68 8 3.36 8 2 8 C0.74335022 5.09399739 0 3.20395416 0 0 Z " fill="#F9FCF1" transform="translate(490,240)"/>
<path d="M0 0 C2.875 -0.125 2.875 -0.125 6 0 C6.66 0.66 7.32 1.32 8 2 C7.34 2.66 6.68 3.32 6 4 C4.02 3.34 2.04 2.68 0 2 C0 1.34 0 0.68 0 0 Z " fill="#FDFCEB" transform="translate(240,154)"/>
<path d="M0 0 C-0.3125 1.9375 -0.3125 1.9375 -1 4 C-1.99 4.33 -2.98 4.66 -4 5 C-4 4.34 -4 3.68 -4 3 C-4.66 2.67 -5.32 2.34 -6 2 C-3 0 -3 0 0 0 Z " fill="#FBFBE7" transform="translate(494,571)"/>
</svg>
