<?xml version="1.0" encoding="UTF-8"?>
<svg version="1.1" xmlns="http://www.w3.org/2000/svg" width="574" height="574">
<path d="M0 0 C1.47988655 -0.01058945 1.47988655 -0.01058945 2.9896698 -0.02139282 C44.03582786 -0.24849813 44.03582786 -0.24849813 61.3671875 3.203125 C62.44081543 3.41243652 63.51444336 3.62174805 64.62060547 3.83740234 C130.47213853 16.96312053 194.97594752 51.03143197 236.3671875 105.203125 C237.37921978 106.48775857 238.39232573 107.7715467 239.40625 109.0546875 C275.67627253 155.28835231 300.28702156 214.47481664 300.5703125 273.8359375 C300.57737213 274.82252853 300.58443176 275.80911957 300.59170532 276.8256073 C300.81881063 317.87176536 300.81881063 317.87176536 297.3671875 335.203125 C297.15787598 336.27675293 296.94856445 337.35038086 296.73291016 338.45654297 C283.60719197 404.30807603 249.53888053 468.81188502 195.3671875 510.203125 C194.08255393 511.21515728 192.7987658 512.22826323 191.515625 513.2421875 C145.28196019 549.51221003 86.09549586 574.12295906 26.734375 574.40625 C25.74778397 574.41330963 24.76119293 574.42036926 23.7447052 574.42764282 C-17.30145286 574.65474813 -17.30145286 574.65474813 -34.6328125 571.203125 C-35.70644043 570.99381348 -36.78006836 570.78450195 -37.88623047 570.56884766 C-103.73776353 557.44312947 -168.24157252 523.37481803 -209.6328125 469.203125 C-210.64484478 467.91849143 -211.65795073 466.6347033 -212.671875 465.3515625 C-248.94189753 419.11789769 -273.55264656 359.93143336 -273.8359375 300.5703125 C-273.84299713 299.58372147 -273.85005676 298.59713043 -273.85733032 297.5806427 C-274.08443563 256.53448464 -274.08443563 256.53448464 -270.6328125 239.203125 C-270.42350098 238.12949707 -270.21418945 237.05586914 -269.99853516 235.94970703 C-256.87281697 170.09817397 -222.80450553 105.59436498 -168.6328125 64.203125 C-167.34817893 63.19109272 -166.0643908 62.17798677 -164.78125 61.1640625 C-118.54758519 24.89403997 -59.36112086 0.28329094 0 0 Z " fill="#FEFDFE" transform="translate(273.6328125,-0.203125)"/>
<path d="M0 0 C35.64 0 71.28 0 108 0 C108.33 71.61 108.66 143.22 109 217 C144.97 217.33 180.94 217.66 218 218 C218 253.64 218 289.28 218 326 C146.06 326 74.12 326 0 326 C0 218.42 0 110.84 0 0 Z " fill="#9000FE" transform="translate(109,85)"/>
<path d="M0 0 C71.61 0 143.22 0 217 0 C217 107.58 217 215.16 217 326 C181.36 326 145.72 326 109 326 C108.67 254.39 108.34 182.78 108 109 C72.36 108.67 36.72 108.34 0 108 C0 72.36 0 36.72 0 0 Z " fill="#9000FE" transform="translate(245,171)"/>
<path d="M0 0 C0.66 0 1.32 0 2 0 C2.33 70.95 2.66 141.9 3 215 C38.97 215.33 74.94 215.66 112 216 C112 251.64 112 287.28 112 324 C111.67 324 111.34 324 111 324 C111 289.02 111 254.04 111 218 C78.99 218 46.98 218 14 218 C14 218.99 14 219.98 14 221 C9.71 221.33 5.42 221.66 1 222 C1 221.34 1 220.68 1 220 C0.01 219.67 -0.98 219.34 -2 219 C-2 217.68 -2 216.36 -2 215 C-1.01 215 -0.02 215 1 215 C0.83748025 214.02522674 0.6749605 213.05045347 0.50751591 212.04614162 C-0.09880538 207.77365434 -0.13616419 203.57078337 -0.12025452 199.26173401 C-0.12110894 198.40637414 -0.12196337 197.55101428 -0.12284368 196.66973442 C-0.12448466 193.81699208 -0.11899982 190.96430915 -0.11352539 188.11157227 C-0.11324319 186.06130474 -0.11340189 184.01103712 -0.1139679 181.96076965 C-0.1142546 176.40350129 -0.10837827 170.84625455 -0.10139394 165.28899121 C-0.09513939 159.47805723 -0.09455494 153.66712274 -0.09336853 147.85618591 C-0.09026142 136.85621481 -0.08205637 125.85625366 -0.07201904 114.85628694 C-0.06083867 102.33157585 -0.0553426 89.80686428 -0.05032361 77.28214943 C-0.03987325 51.52142744 -0.0222858 25.76071428 0 0 Z " fill="#B303FE" transform="translate(215,87)"/>
<path d="M0 0 C2.40503353 3.6075503 2.2396541 5.34836389 2.1875 9.625 C2.18105469 10.79289062 2.17460937 11.96078125 2.16796875 13.1640625 C2 16 2 16 1 17 C0.90008162 19.45284204 0.86558211 21.87758558 0.87301636 24.33097839 C0.87145637 25.10755792 0.86989638 25.88413746 0.86828911 26.6842497 C0.86427584 29.30668989 0.86747008 31.92907297 0.87060547 34.55151367 C0.86925152 36.42367588 0.86747162 38.29583783 0.86529541 40.16799927 C0.86071878 45.26942649 0.86251199 50.37083359 0.8656745 55.47226119 C0.86819878 60.80396185 0.86586019 66.13566073 0.86428833 71.46736145 C0.86246605 80.4281953 0.86487365 89.38902092 0.86962891 98.34985352 C0.87506335 108.71019279 0.87331506 119.07051237 0.8678025 129.43085116 C0.86326315 138.31751747 0.86262511 147.20417784 0.86524117 156.09084493 C0.86680048 161.40182112 0.86700733 166.71278806 0.86370468 172.02376366 C0.86081435 177.02150899 0.86282311 182.01922899 0.86859894 187.01697159 C0.86992064 188.85115454 0.86954241 190.68533962 0.86733627 192.51952171 C0.86460143 195.02441101 0.86803459 197.52921925 0.87301636 200.03410339 C0.87078564 200.75911535 0.86855491 201.48412731 0.86625659 202.23110932 C0.87833401 205.36495756 1.03008312 208.12642987 1.75793648 211.18536854 C2 214 2 214 -2 219 C-2.33 147.06 -2.66 75.12 -3 1 C-2.01 0.67 -1.02 0.34 0 0 Z " fill="#CB0BFE" transform="translate(356,278)"/>
<path d="M0 0 C0.33 0 0.66 0 1 0 C1.33 3.3 1.66 6.6 2 10 C69.98 10 137.96 10 208 10 C208 10.33 208 10.66 208 11 C140.02 11 72.04 11 2 11 C2 42.68 2 74.36 2 107 C1.01 107.495 1.01 107.495 0 108 C0 72.36 0 36.72 0 0 Z " fill="#AF0CFE" transform="translate(245,171)"/>
</svg>
